<svg xmlns="http://www.w3.org/2000/svg" viewBox="0 0 802.75 837.36"><defs><style>.a,.b,.c,.d{fill:none;stroke:#fff;}.a,.b{stroke-miterlimit:10;}.b,.c{stroke-width:8px;}.c,.d{stroke-linecap:round;stroke-linejoin:round;}.d{stroke-width:6px;}</style></defs><title>Asset 1</title><path class="a" d="M922.46,748.79" transform="translate(0 -1.85)"/><path class="b" d="M547,500.3" transform="translate(0 -1.85)"/><path class="c" d="M791.46,661.29C676,607.3,626,595.44,439,629.8,14.5,707.79,4,577.3,4,577.3v-141S100,532.79,445,448c184.62-45.38,232.76-49.93,353.75-9.75L772,541.79Z" transform="translate(0 -1.85)"/><path class="c" d="M41.39,574.21v-74s25-1,25,26-15,22-15,22" transform="translate(0 -1.85)"/><path class="c" d="M397.39,612.21v-125s26-9,26,30-24,41-24,41" transform="translate(0 -1.85)"/><path class="c" d="M648.54,588.55V436.43s24.26-8.41,25,27.5c1,48.79-21.67,51.45-21.67,51.45" transform="translate(0 -1.85)"/><path class="c" d="M606.11,517.12c.11-22.59-1.28-79.49,11.4-78.89,12.29.57,13.35,54.79,13.9,77.37s1.84,75-10.83,75.27S606,539.71,606.11,517.12Z" transform="translate(0 -1.85)"/><path class="c" d="M192.73,572.21c-.67-16.67-.67-58.67-13.33-58-12.28.65-12,40.67-12,57.33s0,55.33,12.67,55.33S193.39,588.88,192.73,572.21Z" transform="translate(0 -1.85)"/><path class="c" d="M444.87,478.22v127a141.34,141.34,0,0,1,16.52-3" transform="translate(0 -1.85)"/><line class="c" x1="539.37" y1="589.36" x2="539.37" y2="455.69"/><line class="c" x1="498.96" y1="464.36" x2="483.06" y2="597.69"/><line class="c" x1="498.96" y1="464.36" x2="517.06" y2="591.69"/><line class="c" x1="129.98" y1="618.36" x2="113.89" y2="514.36"/><line class="c" x1="129.98" y1="618.36" x2="145.89" y2="515.36"/><line class="c" x1="493.1" y1="541.36" x2="506.83" y2="539.36"/><line class="c" x1="265.39" y1="506.36" x2="252.87" y2="626.36"/><line class="c" x1="265.39" y1="506.36" x2="282.87" y2="624.36"/><line class="c" x1="261.1" y1="585.36" x2="274.39" y2="584.36"/><path class="c" d="M588.39,516.71s-10.5.5-19.52,1.5" transform="translate(0 -1.85)"/><path class="c" d="M523.73,459.37A275.3,275.3,0,0,1,555.14,452" transform="translate(0 -1.85)"/><path class="c" d="M590.64,445.46a150.24,150.24,0,0,0-22.44,4.25v139.5" transform="translate(0 -1.85)"/><line class="c" x1="224.82" y1="627.11" x2="224.82" y2="512.11"/><path class="c" d="M208.5,514.07c1.69.24,15.51-.27,34-2" transform="translate(0 -1.85)"/><line class="c" x1="661.21" y1="510.86" x2="676.89" y2="590.36"/><polyline class="c" points="696.54 595.36 696.54 435.86 713.87 515.03 731.21 439.36 731.21 606.36"/><line class="c" x1="161.49" y1="437.94" x2="321.83" y2="257.59"/><line class="c" x1="131.93" y1="424.39" x2="214.91" y2="332.85"/><line class="c" x1="207.99" y1="433.44" x2="398.83" y2="220.81"/><line class="c" x1="258.49" y1="429.95" x2="456.23" y2="207.12"/><line class="c" x1="311.53" y1="421.84" x2="479.2" y2="233.64"/><line class="c" x1="364.54" y1="414.11" x2="502.16" y2="257.59"/><line class="c" x1="420.31" y1="403.86" x2="528.93" y2="284.12"/><line class="c" x1="475.08" y1="392.7" x2="553" y2="306.69"/><line class="c" x1="527.84" y1="381.47" x2="579.45" y2="324.62"/><line class="c" x1="575.78" y1="372" x2="604.08" y2="342.26"/><line class="c" x1="617.68" y1="371.16" x2="630.24" y2="358.8"/><line class="c" x1="650.18" y1="372.03" x2="651.98" y2="370.49"/><path class="c" d="M88.64,408.38,227.93,252.55l17.41,14.8L308,188.13l20,17.41,47.75-58.33,25.38,23.5,37.43-47s49.77,64.15,88,104.55C578.4,283,637.95,323.48,718,373.33" transform="translate(0 -1.85)"/><path class="c" d="M4,436.31s8.11-15.67,34.5-1C52,442.8,88,472.8,88,472.8" transform="translate(0 -1.85)"/><path class="c" d="M290.49,650.79s228,66.5,423,6.5c0,0-24.07,87.93-50.07,117.93-19,22-307,151-573.89-129.93" transform="translate(0 -1.85)"/><path class="c" d="M713.47,657.29s-23.58-28.67-126-12c-64.5,10.5-117.08,30.43-157.49,31" transform="translate(0 -1.85)"/><path class="c" d="M171.39,721.21s-28.5,1.5-51,0l29.1,54.57-20.1,59.43s79-28,171-42" transform="translate(0 -1.85)"/><line class="d" x1="385.04" y1="736.49" x2="388.76" y2="785.98"/><path class="d" d="M509.44,750.72c.56-12.1,1.55-41.86-7-41.58-8.32.28-9.72,28.71-10.47,40.81-.87,14.06-2.67,46.29,6.31,46.39S508.7,766.71,509.44,750.72Z" transform="translate(0 -1.85)"/><path class="d" d="M267.72,681.55c1.22-4.07.68-11-3.92-10.83-9.57.4-18.2,25.87-21.08,33.79s-7.59,26.21.63,28.91c5.69,1.87,8.91-5.75,11.36-11.87" transform="translate(0 -1.85)"/><path class="d" d="M295.39,691.55c2-10-1.83-12-4.67-12.33-9.79-1-17.77,22.07-22.47,35.71-3.61,10.47-8.86,29.62.93,33.56,5.45,2.19,10.59-5,14.21-14.93" transform="translate(0 -1.85)"/><line class="d" x1="236.96" y1="665.36" x2="204.39" y2="708.4"/><line class="d" x1="236.86" y1="665.96" x2="223.47" y2="720.41"/><line class="d" x1="216.01" y1="698.44" x2="223.73" y2="702.69"/><path class="d" d="M303,764.32c-3.19-.86-12.66-5.86-12.66-5.86l19.93-73,12.35,3.75" transform="translate(0 -1.85)"/><path class="d" d="M309.51,721.8s-4.12-1.34-8.38-2.63" transform="translate(0 -1.85)"/><path class="d" d="M355.73,780.36c-4.15-.9-3.84-.89-14.61-4.3l14.07-79.17,13.42,2.49" transform="translate(0 -1.85)"/><path class="d" d="M359.1,734s-5.2-1.36-10.19-2.27" transform="translate(0 -1.85)"/><path class="d" d="M444.09,708.5c5.31.54,14.21.44,21.9.9" transform="translate(0 -1.85)"/><path class="d" d="M335.27,692.48l-17.52,76.27s7.4,3.7,13.08,4.57" transform="translate(0 -1.85)"/><line class="d" x1="449.21" y1="794.05" x2="455.6" y2="707.51"/><line class="d" x1="473.19" y1="794.45" x2="479.76" y2="708.56"/><polyline class="d" points="547.62 708.47 542.39 790.75 525.25 709.65 522.27 793.73"/><path class="d" d="M368.47,783.72l12.33-82.06s17.59-1.45,16.07,14.49c-2.23,23.33-18.13,21.33-18.13,21.33" transform="translate(0 -1.85)"/><polyline class="d" points="401.84 788.13 425.34 705.85 430.99 790.61"/><line class="d" x1="413.31" y1="754.83" x2="425.29" y2="756.14"/><line class="c" x1="88.89" y1="511.36" x2="88.89" y2="605.36"/><polyline class="c" points="306.82 502.11 306.82 621.11 332.39 617.36"/><path class="d" d="M648.22,725s9.17,2.21,9.81,10.09c1.2,14.8-5.25,22.9-20.18,33l4.87-69.87s17.22-12,17,4c-.25,18-17.46,26.46-19.16,24" transform="translate(0 -1.85)"/><path class="d" d="M577.87,710.25l-5.81,76.3a128.06,128.06,0,0,0,18.67-4.67" transform="translate(0 -1.85)"/><line class="d" x1="619.5" y1="701.13" x2="604.06" y2="776.36"/><line class="d" x1="619.5" y1="701.13" x2="624.69" y2="769.55"/><line class="d" x1="609.06" y1="756.69" x2="620.89" y2="752.02"/><path class="d" d="M531.21,29.23" transform="translate(0 -1.85)"/><line class="d" x1="408.67" y1="116.98" x2="410.53" y2="3"/><path class="d" d="M288.31,21.83" transform="translate(0 -1.85)"/><path class="d" d="M401.21,0" transform="translate(0 -1.85)"/><path class="d" d="M630.61,99.73" transform="translate(0 -1.85)"/><line class="d" x1="531.21" y1="27.38" x2="501.39" y2="139.7"/><path class="d" d="M700.21,192.63" transform="translate(0 -1.85)"/><line class="d" x1="630.61" y1="97.88" x2="564.53" y2="218.04"/><line class="d" x1="688.27" y1="325.17" x2="741.36" y2="290.27"/><line class="d" x1="700.21" y1="190.77" x2="621.28" y2="276.18"/><line class="d" x1="318.94" y1="152.62" x2="288.31" y2="19.97"/><path class="d" d="M184.83,87.32" transform="translate(0 -1.85)"/><path class="d" d="M110.62,178.16" transform="translate(0 -1.85)"/><line class="d" x1="65.47" y1="275.79" x2="130.3" y2="321.49"/><line class="d" x1="249.34" y1="212.39" x2="184.83" y2="85.46"/><line class="d" x1="110.62" y1="176.31" x2="184.3" y2="261.44"/><line class="d" x1="50.39" y1="362.36" x2="80.39" y2="375.36"/><line class="d" x1="758.39" y1="361.36" x2="743.33" y2="367.05"/></svg>